<svg width="19" height="18" viewBox="0 0 19 18" fill="none" xmlns="http://www.w3.org/2000/svg">
<path fill-rule="evenodd" clip-rule="evenodd" d="M1.44475 8.68654C1.44475 12.9071 4.5048 15.7827 7.94198 16.3776C8.03547 16.3938 8.12487 16.4282 8.20504 16.479C8.28522 16.5297 8.35462 16.5958 8.40928 16.6733C8.46393 16.7509 8.50277 16.8385 8.52358 16.9311C8.54439 17.0237 8.54676 17.1194 8.53055 17.2129C8.51435 17.3064 8.47989 17.3958 8.42913 17.476C8.37838 17.5562 8.31234 17.6256 8.23476 17.6802C8.15719 17.7349 8.06961 17.7737 7.97703 17.7945C7.88445 17.8153 7.78867 17.8177 7.69518 17.8015C3.65902 17.1027 0 13.7002 0 8.68654C0 6.55546 0.969176 4.88054 2.10057 3.60772C2.91169 2.69539 3.83927 1.9536 4.58522 1.38652H2.31687C2.13301 1.38652 1.95667 1.31348 1.82666 1.18347C1.69665 1.05346 1.62361 0.877123 1.62361 0.693259C1.62361 0.509395 1.69665 0.333062 1.82666 0.203051C1.95667 0.0730397 2.13301 0 2.31687 0H6.47643C6.66029 0 6.83662 0.0730397 6.96663 0.203051C7.09665 0.333062 7.16969 0.509395 7.16969 0.693259V4.85281C7.16969 5.03668 7.09665 5.21301 6.96663 5.34302C6.83662 5.47303 6.66029 5.54607 6.47643 5.54607C6.29256 5.54607 6.11623 5.47303 5.98622 5.34302C5.85621 5.21301 5.78317 5.03668 5.78317 4.85281V2.2933L5.78178 2.29607C4.98869 2.89228 4.0209 3.62297 3.18206 4.56719C2.1907 5.68195 1.44475 7.02965 1.44475 8.68515V8.68654ZM16.8462 9.24946C16.8462 5.07327 13.8513 2.21566 10.4585 1.57786C10.3639 1.56181 10.2735 1.5271 10.1925 1.47574C10.1115 1.42438 10.0416 1.3574 9.98671 1.27871C9.93187 1.20002 9.89324 1.1112 9.87309 1.01743C9.85294 0.923654 9.85167 0.826806 9.86934 0.732535C9.88702 0.638264 9.92329 0.548457 9.97605 0.468353C10.0288 0.388249 10.097 0.319453 10.1766 0.265978C10.2562 0.212502 10.3457 0.175419 10.4398 0.156891C10.5339 0.138363 10.6308 0.138762 10.7247 0.158063C14.7096 0.906783 18.2909 4.28989 18.2909 9.24946C18.2909 11.3805 17.3218 13.0541 16.1904 14.3283C15.3793 15.2406 14.4517 15.9824 13.7057 16.5495H15.9741C16.1579 16.5495 16.3343 16.6225 16.4643 16.7525C16.5943 16.8825 16.6673 17.0589 16.6673 17.2427C16.6673 17.4266 16.5943 17.6029 16.4643 17.733C16.3343 17.863 16.1579 17.936 15.9741 17.936H11.8145C11.6307 17.936 11.4543 17.863 11.3243 17.733C11.1943 17.6029 11.1213 17.4266 11.1213 17.2427V13.0832C11.1213 12.8993 11.1943 12.723 11.3243 12.593C11.4543 12.463 11.6307 12.3899 11.8145 12.3899C11.9984 12.3899 12.1747 12.463 12.3047 12.593C12.4347 12.723 12.5078 12.8993 12.5078 13.0832V15.6413H12.5106C13.3023 15.0423 14.2714 14.313 15.1089 13.3674C16.1003 12.254 16.8462 10.9064 16.8462 9.24946Z" fill="#AFAFAF"/>
</svg>
